<svg xmlns="http://www.w3.org/2000/svg" viewBox="0 400 900 900"><style>.C{stroke-width:5; opacity:0.1;}</style><g fill="none" stroke-linejoin="round"><g class="C"><path d="m571 711 11 9 143-116z" stroke="#ffa7a7" /><path d="m572 710 59-212 108z" stroke="#ff5151" /><path d="m669 412-33 66-64-50-90-71 l178 52z" stroke="#ff2323" /><path d="m354 496 125-135z" stroke="#eb6565" /><path d="m634 477-237 63 85 -182z" stroke="#f11" /><path d="m397 541 240-63 -64 227z" stroke="#d60000" /><path d="m568 711 12 9-184-27 172 18z" stroke="#fec0c0" /><path d="m637 477 34-64 22 78 32 110-88-124z" stroke="#d25353" /><path d="m354 497 41 45 2 145z" stroke="#e15352" /><path d="m571 707 -172 -18z" stroke="#ff3737" /></g></g></svg>